<?xml version="1.0" encoding="utf-8"?>
<!-- Generator: Adobe Illustrator 28.0.0, SVG Export Plug-In . SVG Version: 6.00 Build 0)  -->
<svg version="1.1" id="Layer_1" xmlns="http://www.w3.org/2000/svg" xmlns:xlink="http://www.w3.org/1999/xlink" x="0px" y="0px"
	 viewBox="0 0 636.52 595.28" style="enable-background:new 0 0 636.52 595.28;" xml:space="preserve">
<style type="text/css">
	.st0{fill:#FEFEFE;}
	.st1{fill:#032E15;}
	.st2{fill:#155DFC;}
</style>
<g>
	<path class="st1" d="M358.69,407.02c0,7.81-6.33,14.17-14.17,14.17c-7.81,0-14.17-6.36-14.17-14.17c0-4.72,2.32-8.89,5.9-11.45
		c2.32-1.7,5.19-2.72,8.27-2.72c2.41,0,4.69,0.62,6.67,1.7c0.19,0.06,0.37,0.19,0.52,0.31h0.03c1.88,1.08,3.49,2.62,4.66,4.48
		c0.34,0.49,0.62,0.99,0.86,1.54c0.4,0.8,0.71,1.64,0.93,2.53C358.53,404.55,358.69,405.75,358.69,407.02z"/>
	<path class="st1" d="M313.73,200.01c0,7.81-6.33,14.17-14.17,14.17c-7.81,0-14.17-6.36-14.17-14.17c0-4.72,2.32-8.89,5.9-11.45
		c2.32-1.7,5.19-2.72,8.27-2.72c2.41,0,4.69,0.62,6.67,1.7c0.19,0.06,0.37,0.19,0.52,0.31h0.03c1.88,1.08,3.49,2.62,4.66,4.48
		c0.34,0.49,0.62,0.99,0.86,1.54c0.4,0.8,0.71,1.64,0.93,2.53C313.57,197.54,313.73,198.75,313.73,200.01z"/>
	<g>
		<path class="st2" d="M289.33,221.13v88.16h-26.24v-43.28h-18.7v74.09c-5.28-11.34-8.19-23.98-8.19-37.28
			C236.2,266.31,258.05,234.96,289.33,221.13z"/>
		<rect x="308.03" y="270.94" class="st2" width="28.02" height="38.35"/>
		<path class="st2" d="M263.08,319.93v44.68l0.04,0.07v1.69c0.06,0.06,0.03,0.09,0,0.13v4.16c-4.65-3.66-10.52-5.85-16.9-5.85
			c-15.09,0-27.34,12.25-27.34,27.36c0,15.09,12.25,27.34,27.34,27.34c15.11,0,27.36-12.25,27.36-27.34
			c0-7.37-2.92-14.06-7.67-18.99v-3.96c15.78,14.31,36.74,22.95,59.68,22.95c3.53,0,7.01-0.2,10.43-0.67v-71.57H263.08z
			 M246.23,407.02c-8.2,0-14.85-6.65-14.85-14.85c0-8.21,6.65-14.87,14.85-14.87c8.21,0,14.85,6.65,14.85,14.87
			C261.08,400.36,254.44,407.02,246.23,407.02z"/>
		<path class="st2" d="M263.13,366.5v0.16C263.07,366.57,263.1,366.55,263.13,366.5z"/>
		<path class="st2" d="M263.13,366.5v-0.13C263.19,366.43,263.16,366.46,263.13,366.5z"/>
		<path class="st2" d="M263.13,366.5v-0.13C263.19,366.43,263.16,366.46,263.13,366.5z"/>
		<path class="st2" d="M390.29,174.09c-15.11,0-27.34,12.25-27.34,27.34c0,10.8,6.25,20.13,15.32,24.57v4.62
			c-14.75-10.8-33.01-17.21-52.67-17.21c-5.99,0-11.88,0.59-17.58,1.77v45.18h72.97v-33.21c2.9,1.06,6.04,1.63,9.3,1.63
			c15.09,0,27.34-12.25,27.34-27.36C417.64,186.33,405.39,174.09,390.29,174.09z M390.29,216.29c-8.21,0-14.85-6.65-14.85-14.87
			c0-8.2,6.64-14.85,14.85-14.85c8.2,0,14.85,6.65,14.85,14.85C405.15,209.64,398.49,216.29,390.29,216.29z"/>
		<path class="st2" d="M414.96,302.82c0,39.12-25.17,72.37-60.2,84.48V270.94H381v80.32h18.7v-98.43
			C409.38,267.08,414.96,284.29,414.96,302.82z"/>
	</g>
</g>
</svg>
